<svg xmlns="http://www.w3.org/2000/svg" xmlns:xlink="http://www.w3.org/1999/xlink" width="150" zoomAndPan="magnify" viewBox="0 0 112.5 37.5" height="50" preserveAspectRatio="xMidYMid meet" version="1.0"><defs><g/><clipPath id="9dd8938b54"><path d="M 44.230469 9.34375 L 107 9.34375 L 107 29 L 44.230469 29 Z M 44.230469 9.34375 " clip-rule="nonzero"/></clipPath><clipPath id="5578af9024"><path d="M 44.300781 26.136719 C 44.300781 24.546875 45.671875 23.308594 47.242188 23.480469 L 96.074219 28.789062 C 102.09375 29.445312 107.171875 24.320312 106.5 18.265625 C 105.804688 12.027344 99.414062 8.160156 93.613281 10.464844 L 47.933594 28.621094 C 46.191406 29.316406 44.300781 28.023438 44.300781 26.136719 Z M 44.300781 26.136719 " clip-rule="nonzero"/></clipPath><linearGradient x1="129.714719" gradientTransform="matrix(1.716403, 0, 0, 1.726974, 44.301423, 9.34304)" y1="28.970089" x2="123.17754" gradientUnits="userSpaceOnUse" y2="49.975245" id="e316e90d87"><stop stop-opacity="1" stop-color="rgb(79.524231%, 32.226562%, 48.828125%)" offset="0"/><stop stop-opacity="1" stop-color="rgb(79.492188%, 32.144165%, 49.003601%)" offset="0.0078125"/><stop stop-opacity="1" stop-color="rgb(79.431152%, 31.97937%, 49.356079%)" offset="0.015625"/><stop stop-opacity="1" stop-color="rgb(79.370117%, 31.814575%, 49.707031%)" offset="0.0234375"/><stop stop-opacity="1" stop-color="rgb(79.309082%, 31.648254%, 50.059509%)" offset="0.03125"/><stop stop-opacity="1" stop-color="rgb(79.248047%, 31.483459%, 50.410461%)" offset="0.0390625"/><stop stop-opacity="1" stop-color="rgb(79.187012%, 31.318665%, 50.761414%)" offset="0.046875"/><stop stop-opacity="1" stop-color="rgb(79.124451%, 31.15387%, 51.113892%)" offset="0.0546875"/><stop stop-opacity="1" stop-color="rgb(79.063416%, 30.989075%, 51.464844%)" offset="0.0625"/><stop stop-opacity="1" stop-color="rgb(79.00238%, 30.822754%, 51.817322%)" offset="0.0703125"/><stop stop-opacity="1" stop-color="rgb(78.941345%, 30.657959%, 52.168274%)" offset="0.078125"/><stop stop-opacity="1" stop-color="rgb(78.88031%, 30.493164%, 52.519226%)" offset="0.0859375"/><stop stop-opacity="1" stop-color="rgb(78.817749%, 30.328369%, 52.871704%)" offset="0.09375"/><stop stop-opacity="1" stop-color="rgb(78.756714%, 30.163574%, 53.222656%)" offset="0.101562"/><stop stop-opacity="1" stop-color="rgb(78.695679%, 29.998779%, 53.575134%)" offset="0.109375"/><stop stop-opacity="1" stop-color="rgb(78.634644%, 29.832458%, 53.926086%)" offset="0.117188"/><stop stop-opacity="1" stop-color="rgb(78.573608%, 29.667664%, 54.277039%)" offset="0.125"/><stop stop-opacity="1" stop-color="rgb(78.512573%, 29.502869%, 54.629517%)" offset="0.132812"/><stop stop-opacity="1" stop-color="rgb(78.450012%, 29.338074%, 54.980469%)" offset="0.140625"/><stop stop-opacity="1" stop-color="rgb(78.388977%, 29.173279%, 55.332947%)" offset="0.148438"/><stop stop-opacity="1" stop-color="rgb(78.327942%, 29.006958%, 55.683899%)" offset="0.15625"/><stop stop-opacity="1" stop-color="rgb(78.266907%, 28.842163%, 56.034851%)" offset="0.164062"/><stop stop-opacity="1" stop-color="rgb(78.205872%, 28.677368%, 56.387329%)" offset="0.171875"/><stop stop-opacity="1" stop-color="rgb(78.143311%, 28.512573%, 56.738281%)" offset="0.179688"/><stop stop-opacity="1" stop-color="rgb(78.082275%, 28.347778%, 57.089233%)" offset="0.1875"/><stop stop-opacity="1" stop-color="rgb(78.02124%, 28.181458%, 57.441711%)" offset="0.195312"/><stop stop-opacity="1" stop-color="rgb(77.960205%, 28.016663%, 57.792664%)" offset="0.203125"/><stop stop-opacity="1" stop-color="rgb(77.89917%, 27.851868%, 58.145142%)" offset="0.210938"/><stop stop-opacity="1" stop-color="rgb(77.838135%, 27.687073%, 58.496094%)" offset="0.21875"/><stop stop-opacity="1" stop-color="rgb(77.775574%, 27.522278%, 58.847046%)" offset="0.226562"/><stop stop-opacity="1" stop-color="rgb(77.714539%, 27.357483%, 59.199524%)" offset="0.234375"/><stop stop-opacity="1" stop-color="rgb(77.653503%, 27.191162%, 59.550476%)" offset="0.242188"/><stop stop-opacity="1" stop-color="rgb(77.592468%, 27.026367%, 59.902954%)" offset="0.25"/><stop stop-opacity="1" stop-color="rgb(77.531433%, 26.861572%, 60.253906%)" offset="0.257812"/><stop stop-opacity="1" stop-color="rgb(77.468872%, 26.696777%, 60.604858%)" offset="0.265625"/><stop stop-opacity="1" stop-color="rgb(77.407837%, 26.531982%, 60.957336%)" offset="0.273438"/><stop stop-opacity="1" stop-color="rgb(77.346802%, 26.365662%, 61.308289%)" offset="0.28125"/><stop stop-opacity="1" stop-color="rgb(77.285767%, 26.200867%, 61.660767%)" offset="0.289062"/><stop stop-opacity="1" stop-color="rgb(77.224731%, 26.036072%, 62.011719%)" offset="0.296875"/><stop stop-opacity="1" stop-color="rgb(77.163696%, 25.871277%, 62.362671%)" offset="0.304688"/><stop stop-opacity="1" stop-color="rgb(77.101135%, 25.706482%, 62.715149%)" offset="0.3125"/><stop stop-opacity="1" stop-color="rgb(77.0401%, 25.541687%, 63.066101%)" offset="0.320312"/><stop stop-opacity="1" stop-color="rgb(76.979065%, 25.375366%, 63.418579%)" offset="0.328125"/><stop stop-opacity="1" stop-color="rgb(76.91803%, 25.210571%, 63.769531%)" offset="0.335938"/><stop stop-opacity="1" stop-color="rgb(76.856995%, 25.045776%, 64.120483%)" offset="0.34375"/><stop stop-opacity="1" stop-color="rgb(76.794434%, 24.880981%, 64.472961%)" offset="0.351562"/><stop stop-opacity="1" stop-color="rgb(76.733398%, 24.716187%, 64.823914%)" offset="0.359375"/><stop stop-opacity="1" stop-color="rgb(76.672363%, 24.549866%, 65.176392%)" offset="0.367188"/><stop stop-opacity="1" stop-color="rgb(76.611328%, 24.385071%, 65.527344%)" offset="0.375"/><stop stop-opacity="1" stop-color="rgb(76.550293%, 24.220276%, 65.878296%)" offset="0.382812"/><stop stop-opacity="1" stop-color="rgb(76.489258%, 24.055481%, 66.230774%)" offset="0.390625"/><stop stop-opacity="1" stop-color="rgb(76.426697%, 23.890686%, 66.581726%)" offset="0.398438"/><stop stop-opacity="1" stop-color="rgb(76.365662%, 23.725891%, 66.934204%)" offset="0.40625"/><stop stop-opacity="1" stop-color="rgb(76.304626%, 23.55957%, 67.285156%)" offset="0.414062"/><stop stop-opacity="1" stop-color="rgb(76.243591%, 23.394775%, 67.636108%)" offset="0.421875"/><stop stop-opacity="1" stop-color="rgb(76.182556%, 23.22998%, 67.988586%)" offset="0.429688"/><stop stop-opacity="1" stop-color="rgb(76.119995%, 23.065186%, 68.339539%)" offset="0.4375"/><stop stop-opacity="1" stop-color="rgb(76.05896%, 22.900391%, 68.692017%)" offset="0.445312"/><stop stop-opacity="1" stop-color="rgb(75.997925%, 22.73407%, 69.042969%)" offset="0.453125"/><stop stop-opacity="1" stop-color="rgb(75.93689%, 22.569275%, 69.393921%)" offset="0.460938"/><stop stop-opacity="1" stop-color="rgb(75.875854%, 22.40448%, 69.746399%)" offset="0.46875"/><stop stop-opacity="1" stop-color="rgb(75.814819%, 22.239685%, 70.097351%)" offset="0.476562"/><stop stop-opacity="1" stop-color="rgb(75.752258%, 22.07489%, 70.449829%)" offset="0.484375"/><stop stop-opacity="1" stop-color="rgb(75.691223%, 21.910095%, 70.800781%)" offset="0.492188"/><stop stop-opacity="1" stop-color="rgb(75.630188%, 21.743774%, 71.151733%)" offset="0.494775"/><stop stop-opacity="1" stop-color="rgb(75.59967%, 21.661377%, 71.328735%)" offset="0.5"/><stop stop-opacity="1" stop-color="rgb(75.569153%, 21.578979%, 71.504211%)" offset="0.505225"/><stop stop-opacity="1" stop-color="rgb(75.538635%, 21.496582%, 71.679688%)" offset="0.507812"/><stop stop-opacity="1" stop-color="rgb(75.508118%, 21.414185%, 71.855164%)" offset="0.515625"/><stop stop-opacity="1" stop-color="rgb(75.445557%, 21.24939%, 72.206116%)" offset="0.523438"/><stop stop-opacity="1" stop-color="rgb(75.384521%, 21.084595%, 72.558594%)" offset="0.53125"/><stop stop-opacity="1" stop-color="rgb(75.323486%, 20.918274%, 72.909546%)" offset="0.539062"/><stop stop-opacity="1" stop-color="rgb(75.262451%, 20.753479%, 73.262024%)" offset="0.546875"/><stop stop-opacity="1" stop-color="rgb(75.201416%, 20.588684%, 73.612976%)" offset="0.554688"/><stop stop-opacity="1" stop-color="rgb(75.140381%, 20.423889%, 73.963928%)" offset="0.5625"/><stop stop-opacity="1" stop-color="rgb(75.07782%, 20.259094%, 74.316406%)" offset="0.570312"/><stop stop-opacity="1" stop-color="rgb(75.016785%, 20.092773%, 74.667358%)" offset="0.578125"/><stop stop-opacity="1" stop-color="rgb(74.95575%, 19.927979%, 75.019836%)" offset="0.585938"/><stop stop-opacity="1" stop-color="rgb(74.894714%, 19.763184%, 75.370789%)" offset="0.59375"/><stop stop-opacity="1" stop-color="rgb(74.833679%, 19.598389%, 75.721741%)" offset="0.601562"/><stop stop-opacity="1" stop-color="rgb(74.771118%, 19.433594%, 76.074219%)" offset="0.609375"/><stop stop-opacity="1" stop-color="rgb(74.710083%, 19.268799%, 76.425171%)" offset="0.617188"/><stop stop-opacity="1" stop-color="rgb(74.649048%, 19.102478%, 76.777649%)" offset="0.625"/><stop stop-opacity="1" stop-color="rgb(74.588013%, 18.937683%, 77.128601%)" offset="0.632812"/><stop stop-opacity="1" stop-color="rgb(74.526978%, 18.772888%, 77.479553%)" offset="0.640625"/><stop stop-opacity="1" stop-color="rgb(74.465942%, 18.608093%, 77.832031%)" offset="0.648438"/><stop stop-opacity="1" stop-color="rgb(74.403381%, 18.443298%, 78.182983%)" offset="0.65625"/><stop stop-opacity="1" stop-color="rgb(74.342346%, 18.276978%, 78.535461%)" offset="0.664062"/><stop stop-opacity="1" stop-color="rgb(74.281311%, 18.112183%, 78.886414%)" offset="0.671875"/><stop stop-opacity="1" stop-color="rgb(74.220276%, 17.947388%, 79.237366%)" offset="0.679688"/><stop stop-opacity="1" stop-color="rgb(74.159241%, 17.782593%, 79.589844%)" offset="0.6875"/><stop stop-opacity="1" stop-color="rgb(74.09668%, 17.617798%, 79.940796%)" offset="0.695312"/><stop stop-opacity="1" stop-color="rgb(74.035645%, 17.453003%, 80.293274%)" offset="0.703125"/><stop stop-opacity="1" stop-color="rgb(73.974609%, 17.286682%, 80.644226%)" offset="0.710938"/><stop stop-opacity="1" stop-color="rgb(73.913574%, 17.121887%, 80.995178%)" offset="0.71875"/><stop stop-opacity="1" stop-color="rgb(73.852539%, 16.957092%, 81.347656%)" offset="0.726562"/><stop stop-opacity="1" stop-color="rgb(73.791504%, 16.792297%, 81.698608%)" offset="0.734375"/><stop stop-opacity="1" stop-color="rgb(73.728943%, 16.627502%, 82.051086%)" offset="0.742188"/><stop stop-opacity="1" stop-color="rgb(73.667908%, 16.461182%, 82.402039%)" offset="0.75"/><stop stop-opacity="1" stop-color="rgb(73.606873%, 16.296387%, 82.752991%)" offset="0.757812"/><stop stop-opacity="1" stop-color="rgb(73.545837%, 16.131592%, 83.105469%)" offset="0.765625"/><stop stop-opacity="1" stop-color="rgb(73.484802%, 15.966797%, 83.456421%)" offset="0.773438"/><stop stop-opacity="1" stop-color="rgb(73.422241%, 15.802002%, 83.808899%)" offset="0.78125"/><stop stop-opacity="1" stop-color="rgb(73.361206%, 15.637207%, 84.159851%)" offset="0.789062"/><stop stop-opacity="1" stop-color="rgb(73.300171%, 15.470886%, 84.510803%)" offset="0.796875"/><stop stop-opacity="1" stop-color="rgb(73.239136%, 15.306091%, 84.863281%)" offset="0.804688"/><stop stop-opacity="1" stop-color="rgb(73.178101%, 15.141296%, 85.214233%)" offset="0.8125"/><stop stop-opacity="1" stop-color="rgb(73.11554%, 14.976501%, 85.566711%)" offset="0.820312"/><stop stop-opacity="1" stop-color="rgb(73.054504%, 14.811707%, 85.917664%)" offset="0.828125"/><stop stop-opacity="1" stop-color="rgb(72.993469%, 14.645386%, 86.268616%)" offset="0.835938"/><stop stop-opacity="1" stop-color="rgb(72.932434%, 14.480591%, 86.621094%)" offset="0.84375"/><stop stop-opacity="1" stop-color="rgb(72.871399%, 14.315796%, 86.972046%)" offset="0.851562"/><stop stop-opacity="1" stop-color="rgb(72.810364%, 14.151001%, 87.322998%)" offset="0.859375"/><stop stop-opacity="1" stop-color="rgb(72.747803%, 13.986206%, 87.675476%)" offset="0.867188"/><stop stop-opacity="1" stop-color="rgb(72.686768%, 13.821411%, 88.026428%)" offset="0.875"/><stop stop-opacity="1" stop-color="rgb(72.625732%, 13.65509%, 88.378906%)" offset="0.882812"/><stop stop-opacity="1" stop-color="rgb(72.564697%, 13.490295%, 88.729858%)" offset="0.890625"/><stop stop-opacity="1" stop-color="rgb(72.503662%, 13.3255%, 89.080811%)" offset="0.898438"/><stop stop-opacity="1" stop-color="rgb(72.441101%, 13.160706%, 89.433289%)" offset="0.90625"/><stop stop-opacity="1" stop-color="rgb(72.380066%, 12.995911%, 89.784241%)" offset="0.914062"/><stop stop-opacity="1" stop-color="rgb(72.319031%, 12.82959%, 90.136719%)" offset="0.921875"/><stop stop-opacity="1" stop-color="rgb(72.257996%, 12.664795%, 90.487671%)" offset="0.929688"/><stop stop-opacity="1" stop-color="rgb(72.19696%, 12.5%, 90.838623%)" offset="0.9375"/><stop stop-opacity="1" stop-color="rgb(72.135925%, 12.335205%, 91.191101%)" offset="0.945312"/><stop stop-opacity="1" stop-color="rgb(72.073364%, 12.17041%, 91.542053%)" offset="0.953125"/><stop stop-opacity="1" stop-color="rgb(72.012329%, 12.004089%, 91.894531%)" offset="0.960938"/><stop stop-opacity="1" stop-color="rgb(71.951294%, 11.839294%, 92.245483%)" offset="0.96875"/><stop stop-opacity="1" stop-color="rgb(71.890259%, 11.6745%, 92.596436%)" offset="0.976562"/><stop stop-opacity="1" stop-color="rgb(71.829224%, 11.509705%, 92.948914%)" offset="0.984375"/><stop stop-opacity="1" stop-color="rgb(71.766663%, 11.34491%, 93.299866%)" offset="0.992188"/><stop stop-opacity="1" stop-color="rgb(71.705627%, 11.180115%, 93.652344%)" offset="1"/></linearGradient></defs><g clip-path="url(#9dd8938b54)"><g clip-path="url(#5578af9024)"><path fill="url(#e316e90d87)" d="M 44.300781 9.34375 L 44.300781 29.445312 L 107.171875 29.445312 L 107.171875 9.34375 Z M 44.300781 9.34375 " fill-rule="nonzero"/></g></g><g fill="#ffffff" fill-opacity="1"><g transform="translate(4.194079, 26.616436)"><g><path d="M 6.25 0.203125 C 5.269531 0.203125 4.398438 0.0820312 3.640625 -0.15625 C 2.878906 -0.394531 2.242188 -0.710938 1.734375 -1.109375 C 1.222656 -1.503906 0.832031 -1.9375 0.5625 -2.40625 L 2.09375 -4.265625 L 2.34375 -4.265625 C 2.769531 -3.640625 3.304688 -3.140625 3.953125 -2.765625 C 4.609375 -2.390625 5.375 -2.203125 6.25 -2.203125 C 6.988281 -2.203125 7.546875 -2.359375 7.921875 -2.671875 C 8.304688 -2.992188 8.5 -3.429688 8.5 -3.984375 C 8.5 -4.316406 8.4375 -4.59375 8.3125 -4.8125 C 8.1875 -5.039062 7.984375 -5.234375 7.703125 -5.390625 C 7.421875 -5.554688 7.039062 -5.695312 6.5625 -5.8125 L 4.75 -6.21875 C 3.488281 -6.507812 2.546875 -6.988281 1.921875 -7.65625 C 1.304688 -8.332031 1 -9.207031 1 -10.28125 C 1 -11.070312 1.195312 -11.769531 1.59375 -12.375 C 1.988281 -12.976562 2.566406 -13.445312 3.328125 -13.78125 C 4.085938 -14.125 5 -14.296875 6.0625 -14.296875 C 7.144531 -14.296875 8.070312 -14.148438 8.84375 -13.859375 C 9.625 -13.578125 10.28125 -13.140625 10.8125 -12.546875 L 9.4375 -10.65625 L 9.1875 -10.65625 C 8.789062 -11.070312 8.332031 -11.382812 7.8125 -11.59375 C 7.300781 -11.800781 6.71875 -11.90625 6.0625 -11.90625 C 5.300781 -11.90625 4.71875 -11.769531 4.3125 -11.5 C 3.914062 -11.226562 3.71875 -10.859375 3.71875 -10.390625 C 3.71875 -9.941406 3.859375 -9.585938 4.140625 -9.328125 C 4.421875 -9.066406 4.90625 -8.859375 5.59375 -8.703125 L 7.4375 -8.328125 C 8.800781 -8.035156 9.789062 -7.539062 10.40625 -6.84375 C 11.03125 -6.15625 11.34375 -5.257812 11.34375 -4.15625 C 11.34375 -3.269531 11.148438 -2.5 10.765625 -1.84375 C 10.390625 -1.195312 9.816406 -0.691406 9.046875 -0.328125 C 8.285156 0.0234375 7.351562 0.203125 6.25 0.203125 Z M 6.25 0.203125 "/></g></g></g><g fill="#ffffff" fill-opacity="1"><g transform="translate(16.293585, 26.616436)"><g><path d="M 10.921875 -8.78125 L 10.921875 -14.09375 L 13.703125 -14.09375 L 13.703125 0 L 10.921875 0 L 10.921875 -6.421875 L 4.609375 -6.421875 L 4.609375 0 L 1.828125 0 L 1.828125 -14.09375 L 4.609375 -14.09375 L 4.609375 -8.78125 Z M 10.921875 -8.78125 "/></g></g></g><g fill="#ffffff" fill-opacity="1"><g transform="translate(31.832203, 26.616436)"><g><path d="M 7.6875 0.203125 C 6.394531 0.203125 5.253906 -0.0546875 4.265625 -0.578125 C 3.273438 -1.109375 2.5 -1.914062 1.9375 -3 C 1.382812 -4.082031 1.109375 -5.429688 1.109375 -7.046875 C 1.109375 -8.660156 1.382812 -10.003906 1.9375 -11.078125 C 2.5 -12.160156 3.273438 -12.96875 4.265625 -13.5 C 5.253906 -14.03125 6.394531 -14.296875 7.6875 -14.296875 C 8.96875 -14.296875 10.097656 -14.03125 11.078125 -13.5 C 12.066406 -12.976562 12.835938 -12.175781 13.390625 -11.09375 C 13.953125 -10.007812 14.234375 -8.660156 14.234375 -7.046875 C 14.234375 -5.429688 13.953125 -4.082031 13.390625 -3 C 12.835938 -1.914062 12.066406 -1.109375 11.078125 -0.578125 C 10.097656 -0.0546875 8.96875 0.203125 7.6875 0.203125 Z M 7.6875 -2.21875 C 8.875 -2.21875 9.78125 -2.597656 10.40625 -3.359375 C 11.039062 -4.128906 11.359375 -5.359375 11.359375 -7.046875 C 11.359375 -8.722656 11.039062 -9.945312 10.40625 -10.71875 C 9.78125 -11.488281 8.875 -11.875 7.6875 -11.875 C 6.476562 -11.875 5.554688 -11.488281 4.921875 -10.71875 C 4.296875 -9.945312 3.984375 -8.722656 3.984375 -7.046875 C 3.984375 -5.359375 4.296875 -4.128906 4.921875 -3.359375 C 5.554688 -2.597656 6.476562 -2.21875 7.6875 -2.21875 Z M 7.6875 -2.21875 "/></g></g></g><g fill="#ffffff" fill-opacity="1"><g transform="translate(47.178153, 26.616436)"><g><path d="M 6.71875 0 L 3.609375 0 L 0.390625 -14.09375 L 3.15625 -14.09375 L 5.296875 -4.1875 L 5.53125 -4.1875 L 8.0625 -14.09375 L 10.4375 -14.09375 L 13.015625 -4.1875 L 13.25 -4.1875 L 15.390625 -14.09375 L 18.0625 -14.09375 L 14.84375 0 L 11.734375 0 L 9.265625 -9.09375 L 9.0625 -9.09375 Z M 6.71875 0 "/></g></g></g><g fill="#ffffff" fill-opacity="1"><g transform="translate(65.616414, 26.616436)"><g><path d="M 1.828125 0 L 1.828125 -14.09375 L 7.484375 -14.09375 C 8.941406 -14.09375 10.039062 -13.753906 10.78125 -13.078125 C 11.53125 -12.410156 11.90625 -11.484375 11.90625 -10.296875 C 11.90625 -9.441406 11.6875 -8.738281 11.25 -8.1875 C 10.8125 -7.644531 10.164062 -7.234375 9.3125 -6.953125 L 9.3125 -6.75 C 9.75 -6.550781 10.101562 -6.257812 10.375 -5.875 C 10.65625 -5.5 10.914062 -4.941406 11.15625 -4.203125 L 12.5625 0 L 9.703125 0 L 8.328125 -4.203125 C 8.179688 -4.628906 8.019531 -4.957031 7.84375 -5.1875 C 7.664062 -5.425781 7.441406 -5.597656 7.171875 -5.703125 C 6.898438 -5.816406 6.546875 -5.875 6.109375 -5.875 L 4.609375 -5.875 L 4.609375 0 Z M 7.15625 -8.078125 C 8.5 -8.078125 9.171875 -8.707031 9.171875 -9.96875 C 9.171875 -11.238281 8.5 -11.875 7.15625 -11.875 L 4.609375 -11.875 L 4.609375 -8.078125 Z M 7.15625 -8.078125 "/></g></g></g><g fill="#ffffff" fill-opacity="1"><g transform="translate(78.785224, 26.616436)"><g><path d="M 7.6875 0.203125 C 6.394531 0.203125 5.253906 -0.0546875 4.265625 -0.578125 C 3.273438 -1.109375 2.5 -1.914062 1.9375 -3 C 1.382812 -4.082031 1.109375 -5.429688 1.109375 -7.046875 C 1.109375 -8.660156 1.382812 -10.003906 1.9375 -11.078125 C 2.5 -12.160156 3.273438 -12.96875 4.265625 -13.5 C 5.253906 -14.03125 6.394531 -14.296875 7.6875 -14.296875 C 8.96875 -14.296875 10.097656 -14.03125 11.078125 -13.5 C 12.066406 -12.976562 12.835938 -12.175781 13.390625 -11.09375 C 13.953125 -10.007812 14.234375 -8.660156 14.234375 -7.046875 C 14.234375 -5.429688 13.953125 -4.082031 13.390625 -3 C 12.835938 -1.914062 12.066406 -1.109375 11.078125 -0.578125 C 10.097656 -0.0546875 8.96875 0.203125 7.6875 0.203125 Z M 7.6875 -2.21875 C 8.875 -2.21875 9.78125 -2.597656 10.40625 -3.359375 C 11.039062 -4.128906 11.359375 -5.359375 11.359375 -7.046875 C 11.359375 -8.722656 11.039062 -9.945312 10.40625 -10.71875 C 9.78125 -11.488281 8.875 -11.875 7.6875 -11.875 C 6.476562 -11.875 5.554688 -11.488281 4.921875 -10.71875 C 4.296875 -9.945312 3.984375 -8.722656 3.984375 -7.046875 C 3.984375 -5.359375 4.296875 -4.128906 4.921875 -3.359375 C 5.554688 -2.597656 6.476562 -2.21875 7.6875 -2.21875 Z M 7.6875 -2.21875 "/></g></g></g><g fill="#ffffff" fill-opacity="1"><g transform="translate(94.131174, 26.616436)"><g><path d="M 8.375 0 L 5.015625 0 L 0.25 -14.09375 L 3.203125 -14.09375 L 6.625 -3.578125 L 6.875 -3.578125 L 10.25 -14.09375 L 13.125 -14.09375 Z M 8.375 0 "/></g></g></g></svg>