<svg xmlns="http://www.w3.org/2000/svg" xmlns:xlink="http://www.w3.org/1999/xlink" width="100" zoomAndPan="magnify" viewBox="0 0 75 37.5" height="50" preserveAspectRatio="xMidYMid meet" version="1.0"><defs><g/><clipPath id="327eea63c2"><path d="M 35.070312 13.265625 L 73 13.265625 L 73 25.847656 L 35.070312 25.847656 Z M 35.070312 13.265625 " clip-rule="nonzero"/></clipPath><clipPath id="4b6a198b8e"><path d="M 35.128906 23.464844 C 35.128906 22.496094 35.957031 21.746094 36.90625 21.851562 L 66.410156 25.074219 C 70.046875 25.472656 73.113281 22.359375 72.707031 18.683594 C 72.289062 14.898438 68.429688 12.546875 64.925781 13.949219 L 37.324219 24.972656 C 36.269531 25.394531 35.128906 24.609375 35.128906 23.464844 Z M 35.128906 23.464844 " clip-rule="nonzero"/></clipPath><linearGradient x1="129.714719" gradientTransform="matrix(1.037042, 0, 0, 1.04852, 35.129589, 13.267154)" y1="28.970089" x2="123.17754" gradientUnits="userSpaceOnUse" y2="49.975245" id="77f75f7566"><stop stop-opacity="1" stop-color="rgb(79.524231%, 32.226562%, 48.828125%)" offset="0"/><stop stop-opacity="1" stop-color="rgb(79.492188%, 32.144165%, 49.003601%)" offset="0.0078125"/><stop stop-opacity="1" stop-color="rgb(79.431152%, 31.97937%, 49.356079%)" offset="0.015625"/><stop stop-opacity="1" stop-color="rgb(79.370117%, 31.814575%, 49.707031%)" offset="0.0234375"/><stop stop-opacity="1" stop-color="rgb(79.309082%, 31.648254%, 50.059509%)" offset="0.03125"/><stop stop-opacity="1" stop-color="rgb(79.248047%, 31.483459%, 50.410461%)" offset="0.0390625"/><stop stop-opacity="1" stop-color="rgb(79.187012%, 31.318665%, 50.761414%)" offset="0.046875"/><stop stop-opacity="1" stop-color="rgb(79.124451%, 31.15387%, 51.113892%)" offset="0.0546875"/><stop stop-opacity="1" stop-color="rgb(79.063416%, 30.989075%, 51.464844%)" offset="0.0625"/><stop stop-opacity="1" stop-color="rgb(79.00238%, 30.822754%, 51.817322%)" offset="0.0703125"/><stop stop-opacity="1" stop-color="rgb(78.941345%, 30.657959%, 52.168274%)" offset="0.078125"/><stop stop-opacity="1" stop-color="rgb(78.88031%, 30.493164%, 52.519226%)" offset="0.0859375"/><stop stop-opacity="1" stop-color="rgb(78.817749%, 30.328369%, 52.871704%)" offset="0.09375"/><stop stop-opacity="1" stop-color="rgb(78.756714%, 30.163574%, 53.222656%)" offset="0.101562"/><stop stop-opacity="1" stop-color="rgb(78.695679%, 29.998779%, 53.575134%)" offset="0.109375"/><stop stop-opacity="1" stop-color="rgb(78.634644%, 29.832458%, 53.926086%)" offset="0.117188"/><stop stop-opacity="1" stop-color="rgb(78.573608%, 29.667664%, 54.277039%)" offset="0.125"/><stop stop-opacity="1" stop-color="rgb(78.512573%, 29.502869%, 54.629517%)" offset="0.132812"/><stop stop-opacity="1" stop-color="rgb(78.450012%, 29.338074%, 54.980469%)" offset="0.140625"/><stop stop-opacity="1" stop-color="rgb(78.388977%, 29.173279%, 55.332947%)" offset="0.148437"/><stop stop-opacity="1" stop-color="rgb(78.327942%, 29.006958%, 55.683899%)" offset="0.15625"/><stop stop-opacity="1" stop-color="rgb(78.266907%, 28.842163%, 56.034851%)" offset="0.164063"/><stop stop-opacity="1" stop-color="rgb(78.205872%, 28.677368%, 56.387329%)" offset="0.171875"/><stop stop-opacity="1" stop-color="rgb(78.143311%, 28.512573%, 56.738281%)" offset="0.179687"/><stop stop-opacity="1" stop-color="rgb(78.082275%, 28.347778%, 57.089233%)" offset="0.1875"/><stop stop-opacity="1" stop-color="rgb(78.02124%, 28.181458%, 57.441711%)" offset="0.195312"/><stop stop-opacity="1" stop-color="rgb(77.960205%, 28.016663%, 57.792664%)" offset="0.203125"/><stop stop-opacity="1" stop-color="rgb(77.89917%, 27.851868%, 58.145142%)" offset="0.210938"/><stop stop-opacity="1" stop-color="rgb(77.838135%, 27.687073%, 58.496094%)" offset="0.21875"/><stop stop-opacity="1" stop-color="rgb(77.775574%, 27.522278%, 58.847046%)" offset="0.226562"/><stop stop-opacity="1" stop-color="rgb(77.714539%, 27.357483%, 59.199524%)" offset="0.234375"/><stop stop-opacity="1" stop-color="rgb(77.653503%, 27.191162%, 59.550476%)" offset="0.242187"/><stop stop-opacity="1" stop-color="rgb(77.592468%, 27.026367%, 59.902954%)" offset="0.25"/><stop stop-opacity="1" stop-color="rgb(77.531433%, 26.861572%, 60.253906%)" offset="0.257812"/><stop stop-opacity="1" stop-color="rgb(77.468872%, 26.696777%, 60.604858%)" offset="0.265625"/><stop stop-opacity="1" stop-color="rgb(77.407837%, 26.531982%, 60.957336%)" offset="0.273438"/><stop stop-opacity="1" stop-color="rgb(77.346802%, 26.365662%, 61.308289%)" offset="0.28125"/><stop stop-opacity="1" stop-color="rgb(77.285767%, 26.200867%, 61.660767%)" offset="0.289062"/><stop stop-opacity="1" stop-color="rgb(77.224731%, 26.036072%, 62.011719%)" offset="0.296875"/><stop stop-opacity="1" stop-color="rgb(77.163696%, 25.871277%, 62.362671%)" offset="0.304687"/><stop stop-opacity="1" stop-color="rgb(77.101135%, 25.706482%, 62.715149%)" offset="0.3125"/><stop stop-opacity="1" stop-color="rgb(77.0401%, 25.541687%, 63.066101%)" offset="0.320313"/><stop stop-opacity="1" stop-color="rgb(76.979065%, 25.375366%, 63.418579%)" offset="0.328125"/><stop stop-opacity="1" stop-color="rgb(76.91803%, 25.210571%, 63.769531%)" offset="0.335937"/><stop stop-opacity="1" stop-color="rgb(76.856995%, 25.045776%, 64.120483%)" offset="0.34375"/><stop stop-opacity="1" stop-color="rgb(76.794434%, 24.880981%, 64.472961%)" offset="0.351562"/><stop stop-opacity="1" stop-color="rgb(76.733398%, 24.716187%, 64.823914%)" offset="0.359375"/><stop stop-opacity="1" stop-color="rgb(76.672363%, 24.549866%, 65.176392%)" offset="0.367188"/><stop stop-opacity="1" stop-color="rgb(76.611328%, 24.385071%, 65.527344%)" offset="0.375"/><stop stop-opacity="1" stop-color="rgb(76.550293%, 24.220276%, 65.878296%)" offset="0.382812"/><stop stop-opacity="1" stop-color="rgb(76.489258%, 24.055481%, 66.230774%)" offset="0.390625"/><stop stop-opacity="1" stop-color="rgb(76.426697%, 23.890686%, 66.581726%)" offset="0.398437"/><stop stop-opacity="1" stop-color="rgb(76.365662%, 23.725891%, 66.934204%)" offset="0.40625"/><stop stop-opacity="1" stop-color="rgb(76.304626%, 23.55957%, 67.285156%)" offset="0.414063"/><stop stop-opacity="1" stop-color="rgb(76.243591%, 23.394775%, 67.636108%)" offset="0.421875"/><stop stop-opacity="1" stop-color="rgb(76.182556%, 23.22998%, 67.988586%)" offset="0.429687"/><stop stop-opacity="1" stop-color="rgb(76.119995%, 23.065186%, 68.339539%)" offset="0.4375"/><stop stop-opacity="1" stop-color="rgb(76.05896%, 22.900391%, 68.692017%)" offset="0.445312"/><stop stop-opacity="1" stop-color="rgb(75.997925%, 22.73407%, 69.042969%)" offset="0.453125"/><stop stop-opacity="1" stop-color="rgb(75.93689%, 22.569275%, 69.393921%)" offset="0.460938"/><stop stop-opacity="1" stop-color="rgb(75.875854%, 22.40448%, 69.746399%)" offset="0.46875"/><stop stop-opacity="1" stop-color="rgb(75.814819%, 22.239685%, 70.097351%)" offset="0.476562"/><stop stop-opacity="1" stop-color="rgb(75.752258%, 22.07489%, 70.449829%)" offset="0.484375"/><stop stop-opacity="1" stop-color="rgb(75.691223%, 21.910095%, 70.800781%)" offset="0.492187"/><stop stop-opacity="1" stop-color="rgb(75.630188%, 21.743774%, 71.151733%)" offset="0.494775"/><stop stop-opacity="1" stop-color="rgb(75.59967%, 21.661377%, 71.328735%)" offset="0.5"/><stop stop-opacity="1" stop-color="rgb(75.569153%, 21.578979%, 71.504211%)" offset="0.505225"/><stop stop-opacity="1" stop-color="rgb(75.538635%, 21.496582%, 71.679688%)" offset="0.507812"/><stop stop-opacity="1" stop-color="rgb(75.508118%, 21.414185%, 71.855164%)" offset="0.515625"/><stop stop-opacity="1" stop-color="rgb(75.445557%, 21.24939%, 72.206116%)" offset="0.523438"/><stop stop-opacity="1" stop-color="rgb(75.384521%, 21.084595%, 72.558594%)" offset="0.53125"/><stop stop-opacity="1" stop-color="rgb(75.323486%, 20.918274%, 72.909546%)" offset="0.539062"/><stop stop-opacity="1" stop-color="rgb(75.262451%, 20.753479%, 73.262024%)" offset="0.546875"/><stop stop-opacity="1" stop-color="rgb(75.201416%, 20.588684%, 73.612976%)" offset="0.554687"/><stop stop-opacity="1" stop-color="rgb(75.140381%, 20.423889%, 73.963928%)" offset="0.5625"/><stop stop-opacity="1" stop-color="rgb(75.07782%, 20.259094%, 74.316406%)" offset="0.570313"/><stop stop-opacity="1" stop-color="rgb(75.016785%, 20.092773%, 74.667358%)" offset="0.578125"/><stop stop-opacity="1" stop-color="rgb(74.95575%, 19.927979%, 75.019836%)" offset="0.585937"/><stop stop-opacity="1" stop-color="rgb(74.894714%, 19.763184%, 75.370789%)" offset="0.59375"/><stop stop-opacity="1" stop-color="rgb(74.833679%, 19.598389%, 75.721741%)" offset="0.601562"/><stop stop-opacity="1" stop-color="rgb(74.771118%, 19.433594%, 76.074219%)" offset="0.609375"/><stop stop-opacity="1" stop-color="rgb(74.710083%, 19.268799%, 76.425171%)" offset="0.617188"/><stop stop-opacity="1" stop-color="rgb(74.649048%, 19.102478%, 76.777649%)" offset="0.625"/><stop stop-opacity="1" stop-color="rgb(74.588013%, 18.937683%, 77.128601%)" offset="0.632812"/><stop stop-opacity="1" stop-color="rgb(74.526978%, 18.772888%, 77.479553%)" offset="0.640625"/><stop stop-opacity="1" stop-color="rgb(74.465942%, 18.608093%, 77.832031%)" offset="0.648437"/><stop stop-opacity="1" stop-color="rgb(74.403381%, 18.443298%, 78.182983%)" offset="0.65625"/><stop stop-opacity="1" stop-color="rgb(74.342346%, 18.276978%, 78.535461%)" offset="0.664062"/><stop stop-opacity="1" stop-color="rgb(74.281311%, 18.112183%, 78.886414%)" offset="0.671875"/><stop stop-opacity="1" stop-color="rgb(74.220276%, 17.947388%, 79.237366%)" offset="0.679687"/><stop stop-opacity="1" stop-color="rgb(74.159241%, 17.782593%, 79.589844%)" offset="0.6875"/><stop stop-opacity="1" stop-color="rgb(74.09668%, 17.617798%, 79.940796%)" offset="0.695312"/><stop stop-opacity="1" stop-color="rgb(74.035645%, 17.453003%, 80.293274%)" offset="0.703125"/><stop stop-opacity="1" stop-color="rgb(73.974609%, 17.286682%, 80.644226%)" offset="0.710937"/><stop stop-opacity="1" stop-color="rgb(73.913574%, 17.121887%, 80.995178%)" offset="0.71875"/><stop stop-opacity="1" stop-color="rgb(73.852539%, 16.957092%, 81.347656%)" offset="0.726562"/><stop stop-opacity="1" stop-color="rgb(73.791504%, 16.792297%, 81.698608%)" offset="0.734375"/><stop stop-opacity="1" stop-color="rgb(73.728943%, 16.627502%, 82.051086%)" offset="0.742187"/><stop stop-opacity="1" stop-color="rgb(73.667908%, 16.461182%, 82.402039%)" offset="0.75"/><stop stop-opacity="1" stop-color="rgb(73.606873%, 16.296387%, 82.752991%)" offset="0.757812"/><stop stop-opacity="1" stop-color="rgb(73.545837%, 16.131592%, 83.105469%)" offset="0.765625"/><stop stop-opacity="1" stop-color="rgb(73.484802%, 15.966797%, 83.456421%)" offset="0.773438"/><stop stop-opacity="1" stop-color="rgb(73.422241%, 15.802002%, 83.808899%)" offset="0.78125"/><stop stop-opacity="1" stop-color="rgb(73.361206%, 15.637207%, 84.159851%)" offset="0.789062"/><stop stop-opacity="1" stop-color="rgb(73.300171%, 15.470886%, 84.510803%)" offset="0.796875"/><stop stop-opacity="1" stop-color="rgb(73.239136%, 15.306091%, 84.863281%)" offset="0.804687"/><stop stop-opacity="1" stop-color="rgb(73.178101%, 15.141296%, 85.214233%)" offset="0.8125"/><stop stop-opacity="1" stop-color="rgb(73.11554%, 14.976501%, 85.566711%)" offset="0.820312"/><stop stop-opacity="1" stop-color="rgb(73.054504%, 14.811707%, 85.917664%)" offset="0.828125"/><stop stop-opacity="1" stop-color="rgb(72.993469%, 14.645386%, 86.268616%)" offset="0.835938"/><stop stop-opacity="1" stop-color="rgb(72.932434%, 14.480591%, 86.621094%)" offset="0.84375"/><stop stop-opacity="1" stop-color="rgb(72.871399%, 14.315796%, 86.972046%)" offset="0.851562"/><stop stop-opacity="1" stop-color="rgb(72.810364%, 14.151001%, 87.322998%)" offset="0.859375"/><stop stop-opacity="1" stop-color="rgb(72.747803%, 13.986206%, 87.675476%)" offset="0.867188"/><stop stop-opacity="1" stop-color="rgb(72.686768%, 13.821411%, 88.026428%)" offset="0.875"/><stop stop-opacity="1" stop-color="rgb(72.625732%, 13.65509%, 88.378906%)" offset="0.882813"/><stop stop-opacity="1" stop-color="rgb(72.564697%, 13.490295%, 88.729858%)" offset="0.890625"/><stop stop-opacity="1" stop-color="rgb(72.503662%, 13.3255%, 89.080811%)" offset="0.898438"/><stop stop-opacity="1" stop-color="rgb(72.441101%, 13.160706%, 89.433289%)" offset="0.90625"/><stop stop-opacity="1" stop-color="rgb(72.380066%, 12.995911%, 89.784241%)" offset="0.914062"/><stop stop-opacity="1" stop-color="rgb(72.319031%, 12.82959%, 90.136719%)" offset="0.921875"/><stop stop-opacity="1" stop-color="rgb(72.257996%, 12.664795%, 90.487671%)" offset="0.929688"/><stop stop-opacity="1" stop-color="rgb(72.19696%, 12.5%, 90.838623%)" offset="0.9375"/><stop stop-opacity="1" stop-color="rgb(72.135925%, 12.335205%, 91.191101%)" offset="0.945313"/><stop stop-opacity="1" stop-color="rgb(72.073364%, 12.17041%, 91.542053%)" offset="0.953125"/><stop stop-opacity="1" stop-color="rgb(72.012329%, 12.004089%, 91.894531%)" offset="0.960937"/><stop stop-opacity="1" stop-color="rgb(71.951294%, 11.839294%, 92.245483%)" offset="0.96875"/><stop stop-opacity="1" stop-color="rgb(71.890259%, 11.6745%, 92.596436%)" offset="0.976562"/><stop stop-opacity="1" stop-color="rgb(71.829224%, 11.509705%, 92.948914%)" offset="0.984375"/><stop stop-opacity="1" stop-color="rgb(71.766663%, 11.34491%, 93.299866%)" offset="0.992188"/><stop stop-opacity="1" stop-color="rgb(71.705627%, 11.180115%, 93.652344%)" offset="1"/></linearGradient></defs><g clip-path="url(#327eea63c2)"><g clip-path="url(#4b6a198b8e)"><path fill="url(#77f75f7566)" d="M 35.128906 13.265625 L 35.128906 25.472656 L 73.113281 25.472656 L 73.113281 13.265625 Z M 35.128906 13.265625 " fill-rule="nonzero"/></g></g><g fill="#ffffff" fill-opacity="1"><g transform="translate(1.337634, 22.944079)"><g><path d="M 4.375 0.140625 C 3.6875 0.140625 3.078125 0.0546875 2.546875 -0.109375 C 2.015625 -0.273438 1.570312 -0.492188 1.21875 -0.765625 C 0.863281 -1.046875 0.585938 -1.347656 0.390625 -1.671875 L 1.46875 -2.984375 L 1.640625 -2.984375 C 1.929688 -2.546875 2.304688 -2.195312 2.765625 -1.9375 C 3.222656 -1.675781 3.757812 -1.546875 4.375 -1.546875 C 4.894531 -1.546875 5.285156 -1.65625 5.546875 -1.875 C 5.816406 -2.09375 5.953125 -2.394531 5.953125 -2.78125 C 5.953125 -3.019531 5.90625 -3.21875 5.8125 -3.375 C 5.726562 -3.53125 5.585938 -3.664062 5.390625 -3.78125 C 5.191406 -3.894531 4.925781 -3.988281 4.59375 -4.0625 L 3.328125 -4.359375 C 2.441406 -4.554688 1.78125 -4.890625 1.34375 -5.359375 C 0.90625 -5.828125 0.6875 -6.441406 0.6875 -7.203125 C 0.6875 -7.753906 0.828125 -8.238281 1.109375 -8.65625 C 1.390625 -9.082031 1.796875 -9.410156 2.328125 -9.640625 C 2.859375 -9.878906 3.5 -10 4.25 -10 C 5 -10 5.644531 -9.898438 6.1875 -9.703125 C 6.726562 -9.503906 7.1875 -9.195312 7.5625 -8.78125 L 6.609375 -7.453125 L 6.4375 -7.453125 C 6.15625 -7.742188 5.832031 -7.960938 5.46875 -8.109375 C 5.113281 -8.265625 4.707031 -8.34375 4.25 -8.34375 C 3.707031 -8.34375 3.296875 -8.242188 3.015625 -8.046875 C 2.742188 -7.859375 2.609375 -7.597656 2.609375 -7.265625 C 2.609375 -6.960938 2.703125 -6.71875 2.890625 -6.53125 C 3.085938 -6.34375 3.425781 -6.195312 3.90625 -6.09375 L 5.203125 -5.828125 C 6.160156 -5.628906 6.851562 -5.285156 7.28125 -4.796875 C 7.71875 -4.316406 7.9375 -3.6875 7.9375 -2.90625 C 7.9375 -2.289062 7.800781 -1.753906 7.53125 -1.296875 C 7.269531 -0.835938 6.867188 -0.484375 6.328125 -0.234375 C 5.796875 0.015625 5.144531 0.140625 4.375 0.140625 Z M 4.375 0.140625 "/></g></g></g><g fill="#ffffff" fill-opacity="1"><g transform="translate(9.80587, 22.944079)"><g><path d="M 7.640625 -6.15625 L 7.640625 -9.859375 L 9.59375 -9.859375 L 9.59375 0 L 7.640625 0 L 7.640625 -4.484375 L 3.234375 -4.484375 L 3.234375 0 L 1.28125 0 L 1.28125 -9.859375 L 3.234375 -9.859375 L 3.234375 -6.15625 Z M 7.640625 -6.15625 "/></g></g></g><g fill="#ffffff" fill-opacity="1"><g transform="translate(20.68108, 22.944079)"><g><path d="M 5.375 0.140625 C 4.46875 0.140625 3.671875 -0.0390625 2.984375 -0.40625 C 2.296875 -0.78125 1.753906 -1.34375 1.359375 -2.09375 C 0.972656 -2.851562 0.78125 -3.800781 0.78125 -4.9375 C 0.78125 -6.0625 0.972656 -7 1.359375 -7.75 C 1.753906 -8.507812 2.296875 -9.070312 2.984375 -9.4375 C 3.671875 -9.8125 4.46875 -10 5.375 -10 C 6.28125 -10 7.078125 -9.816406 7.765625 -9.453125 C 8.453125 -9.085938 8.988281 -8.523438 9.375 -7.765625 C 9.769531 -7.003906 9.96875 -6.0625 9.96875 -4.9375 C 9.96875 -3.800781 9.769531 -2.851562 9.375 -2.09375 C 8.988281 -1.332031 8.453125 -0.769531 7.765625 -0.40625 C 7.078125 -0.0390625 6.28125 0.140625 5.375 0.140625 Z M 5.375 -1.546875 C 6.207031 -1.546875 6.84375 -1.8125 7.28125 -2.34375 C 7.726562 -2.882812 7.953125 -3.75 7.953125 -4.9375 C 7.953125 -6.113281 7.726562 -6.96875 7.28125 -7.5 C 6.84375 -8.039062 6.207031 -8.3125 5.375 -8.3125 C 4.53125 -8.3125 3.882812 -8.039062 3.4375 -7.5 C 3 -6.96875 2.78125 -6.113281 2.78125 -4.9375 C 2.78125 -3.75 3 -2.882812 3.4375 -2.34375 C 3.882812 -1.8125 4.53125 -1.546875 5.375 -1.546875 Z M 5.375 -1.546875 "/></g></g></g><g fill="#ffffff" fill-opacity="1"><g transform="translate(31.421447, 22.944079)"><g><path d="M 4.703125 0 L 2.53125 0 L 0.265625 -9.859375 L 2.21875 -9.859375 L 3.703125 -2.921875 L 3.875 -2.921875 L 5.640625 -9.859375 L 7.296875 -9.859375 L 9.109375 -2.921875 L 9.28125 -2.921875 L 10.765625 -9.859375 L 12.640625 -9.859375 L 10.390625 0 L 8.203125 0 L 6.484375 -6.359375 L 6.34375 -6.359375 Z M 4.703125 0 "/></g></g></g><g fill="#ffffff" fill-opacity="1"><g transform="translate(44.326067, 22.944079)"><g><path d="M 1.28125 0 L 1.28125 -9.859375 L 5.234375 -9.859375 C 6.253906 -9.859375 7.023438 -9.625 7.546875 -9.15625 C 8.066406 -8.6875 8.328125 -8.035156 8.328125 -7.203125 C 8.328125 -6.609375 8.175781 -6.117188 7.875 -5.734375 C 7.570312 -5.359375 7.117188 -5.066406 6.515625 -4.859375 L 6.515625 -4.71875 C 6.828125 -4.582031 7.078125 -4.378906 7.265625 -4.109375 C 7.453125 -3.847656 7.632812 -3.457031 7.8125 -2.9375 L 8.796875 0 L 6.796875 0 L 5.828125 -2.953125 C 5.722656 -3.242188 5.609375 -3.472656 5.484375 -3.640625 C 5.367188 -3.804688 5.210938 -3.925781 5.015625 -4 C 4.828125 -4.070312 4.582031 -4.109375 4.28125 -4.109375 L 3.234375 -4.109375 L 3.234375 0 Z M 5 -5.65625 C 5.945312 -5.65625 6.421875 -6.09375 6.421875 -6.96875 C 6.421875 -7.863281 5.945312 -8.3125 5 -8.3125 L 3.234375 -8.3125 L 3.234375 -5.65625 Z M 5 -5.65625 "/></g></g></g><g fill="#ffffff" fill-opacity="1"><g transform="translate(53.542691, 22.944079)"><g><path d="M 5.375 0.140625 C 4.46875 0.140625 3.671875 -0.0390625 2.984375 -0.40625 C 2.296875 -0.78125 1.753906 -1.34375 1.359375 -2.09375 C 0.972656 -2.851562 0.78125 -3.800781 0.78125 -4.9375 C 0.78125 -6.0625 0.972656 -7 1.359375 -7.75 C 1.753906 -8.507812 2.296875 -9.070312 2.984375 -9.4375 C 3.671875 -9.8125 4.46875 -10 5.375 -10 C 6.28125 -10 7.078125 -9.816406 7.765625 -9.453125 C 8.453125 -9.085938 8.988281 -8.523438 9.375 -7.765625 C 9.769531 -7.003906 9.96875 -6.0625 9.96875 -4.9375 C 9.96875 -3.800781 9.769531 -2.851562 9.375 -2.09375 C 8.988281 -1.332031 8.453125 -0.769531 7.765625 -0.40625 C 7.078125 -0.0390625 6.28125 0.140625 5.375 0.140625 Z M 5.375 -1.546875 C 6.207031 -1.546875 6.84375 -1.8125 7.28125 -2.34375 C 7.726562 -2.882812 7.953125 -3.75 7.953125 -4.9375 C 7.953125 -6.113281 7.726562 -6.96875 7.28125 -7.5 C 6.84375 -8.039062 6.207031 -8.3125 5.375 -8.3125 C 4.53125 -8.3125 3.882812 -8.039062 3.4375 -7.5 C 3 -6.96875 2.78125 -6.113281 2.78125 -4.9375 C 2.78125 -3.75 3 -2.882812 3.4375 -2.34375 C 3.882812 -1.8125 4.53125 -1.546875 5.375 -1.546875 Z M 5.375 -1.546875 "/></g></g></g><g fill="#ffffff" fill-opacity="1"><g transform="translate(64.283057, 22.944079)"><g><path d="M 5.859375 0 L 3.5 0 L 0.171875 -9.859375 L 2.25 -9.859375 L 4.640625 -2.515625 L 4.8125 -2.515625 L 7.171875 -9.859375 L 9.1875 -9.859375 Z M 5.859375 0 "/></g></g></g></svg>